<?xml version="1.0" encoding="UTF-8" standalone="no"?>
<!-- Created with Inkscape (http://www.inkscape.org/) -->

<svg
   xmlns:dc="http://purl.org/dc/elements/1.1/"
   xmlns:cc="http://creativecommons.org/ns#"
   xmlns:rdf="http://www.w3.org/1999/02/22-rdf-syntax-ns#"
   xmlns:svg="http://www.w3.org/2000/svg"
   xmlns="http://www.w3.org/2000/svg"
   xmlns:sodipodi="http://sodipodi.sourceforge.net/DTD/sodipodi-0.dtd"
   xmlns:inkscape="http://www.inkscape.org/namespaces/inkscape"
   width="1080"
   height="1080"
   viewBox="0 0 1080 1080"
   version="1.1"
   id="svg8"
   inkscape:version="0.92.4 5da689c313, 2019-01-14"
   sodipodi:docname="drawing.svg"
   enable-background="new">
  <defs
     id="defs2" />
  <sodipodi:namedview
     id="base"
     pagecolor="#ffffff"
     bordercolor="#666666"
     borderopacity="1.0"
     inkscape:pageopacity="0.0"
     inkscape:pageshadow="2"
     inkscape:zoom="0.49497475"
     inkscape:cx="-57.88037"
     inkscape:cy="735.20391"
     inkscape:document-units="px"
     inkscape:current-layer="layer1"
     showgrid="false"
     units="px"
     scale-x="1"
     inkscape:window-width="1914"
     inkscape:window-height="1047"
     inkscape:window-x="2"
     inkscape:window-y="29"
     inkscape:window-maximized="0"
     showguides="false"
     inkscape:snap-page="true" />
  <metadata
     id="metadata5">
    <rdf:RDF>
      <cc:Work
         rdf:about="">
        <dc:format>image/svg+xml</dc:format>
        <dc:type
           rdf:resource="http://purl.org/dc/dcmitype/StillImage" />
        <dc:title />
      </cc:Work>
    </rdf:RDF>
  </metadata>
  <g
     inkscape:groupmode="layer"
     id="layer1"
     inkscape:label="BG">
    <rect
       style="opacity:1;fill:#b0c4de;fill-opacity:0.50909089;stroke:none;stroke-width:4.01968145;stroke-linecap:round;stroke-linejoin:round;stroke-miterlimit:4;stroke-dasharray:none;stroke-dashoffset:0;stroke-opacity:1;paint-order:normal"
       id="rect951"
       width="686.47675"
       height="785.49048"
       x="250.99178"
       y="58.29509"
       transform="matrix(1,0,-0.13943309,0.99023149,0,0)" />
    <circle
       style="opacity:1;fill:#87cefa;fill-opacity:0.50909089;stroke:none;stroke-width:4;stroke-linecap:round;stroke-linejoin:round;stroke-miterlimit:4;stroke-dasharray:none;stroke-dashoffset:0;stroke-opacity:1;paint-order:normal"
       id="path960"
       cx="790.9494"
       cy="579.97449"
       r="249.50768" />
    <rect
       style="opacity:1;fill:#ffb6c1;fill-opacity:0.50909089;stroke:none;stroke-width:4;stroke-linecap:round;stroke-linejoin:round;stroke-miterlimit:4;stroke-dasharray:none;stroke-dashoffset:0;stroke-opacity:1;paint-order:normal"
       id="rect1050"
       width="310.94489"
       height="39.701088"
       x="109.09647"
       y="118.33478" />
    <rect
       style="opacity:1;fill:#ffb6c1;fill-opacity:0.50909089;stroke:none;stroke-width:4;stroke-linecap:round;stroke-linejoin:round;stroke-miterlimit:4;stroke-dasharray:none;stroke-dashoffset:0;stroke-opacity:1;paint-order:normal"
       id="rect1050-7"
       width="310.94489"
       height="39.701088"
       x="109.09647"
       y="197.17484" />
    <rect
       style="opacity:1;fill:#ffb6c1;fill-opacity:0.50909089;stroke:none;stroke-width:4;stroke-linecap:round;stroke-linejoin:round;stroke-miterlimit:4;stroke-dasharray:none;stroke-dashoffset:0;stroke-opacity:1;paint-order:normal"
       id="rect1050-7-5"
       width="310.94489"
       height="39.701088"
       x="109.09647"
       y="278.29141" />
    <rect
       style="opacity:1;fill:#ffb6c1;fill-opacity:0.50909089;stroke:none;stroke-width:4;stroke-linecap:round;stroke-linejoin:round;stroke-miterlimit:4;stroke-dasharray:none;stroke-dashoffset:0;stroke-opacity:1;paint-order:normal"
       id="rect1050-7-5-3"
       width="310.94489"
       height="39.701088"
       x="109.09647"
       y="366.17468" />
    <rect
       style="opacity:1;fill:#ffb6c1;fill-opacity:0.50909089;stroke:none;stroke-width:4;stroke-linecap:round;stroke-linejoin:round;stroke-miterlimit:4;stroke-dasharray:none;stroke-dashoffset:0;stroke-opacity:1;paint-order:normal"
       id="rect1050-7-5-3-5"
       width="310.94489"
       height="39.701088"
       x="109.09647"
       y="455.06808" />
    <rect
       style="opacity:1;fill:#ffb6c1;fill-opacity:0.50909089;stroke:none;stroke-width:4;stroke-linecap:round;stroke-linejoin:round;stroke-miterlimit:4;stroke-dasharray:none;stroke-dashoffset:0;stroke-opacity:1;paint-order:normal"
       id="rect1050-7-5-3-5-6"
       width="310.94489"
       height="39.701088"
       x="109.09647"
       y="549.01227" />
    <rect
       style="opacity:1;fill:#eee8aa;fill-opacity:0.50909089;stroke:none;stroke-width:4.41604376;stroke-linecap:round;stroke-linejoin:round;stroke-miterlimit:4;stroke-dasharray:none;stroke-dashoffset:0;stroke-opacity:1;paint-order:normal"
       id="rect918"
       width="217.18279"
       height="198.4046"
       x="646.39679"
       y="134.20236"
       transform="matrix(1,0,0.57171515,0.82045219,0,0)" />
  </g>
  <g
     inkscape:groupmode="layer"
     id="layer11"
     inkscape:label="Body"
     style="display:inline"
     transform="translate(0,-10)">
    <g
       inkscape:groupmode="layer"
       id="layer13"
       inkscape:label="Jacket"
       style="display:inline">
      <path
         style="fill:#000000;fill-opacity:1;stroke:none;stroke-width:0.99999982px;stroke-linecap:butt;stroke-linejoin:miter;stroke-opacity:1"
         d="m 598.61622,595.8786 c 0,0 95.69126,0.47977 166.99823,89.9376 0,0 115.12951,35.02353 142.86299,133.05877 0,0 79.36762,3.43411 95.76316,135.85382 0.5091,4.11202 7.8267,7.25596 8.2036,11.62235 l -291.03703,2.47652 -280.01601,89.15764 -369.948222,31.9987 c 0,0 10.822661,-8.3322 9.710691,-16.0017 -6.418918,-44.2717 -24.444154,-197.71418 13.127855,-300.48451 0,0 44.080646,-79.08591 133.538456,-94.6438 0,0 18.15082,-73.89995 60.93509,-45.37715 z"
         id="path1191"
         inkscape:connector-curvature="0"
         sodipodi:nodetypes="cccsccccscccc" />
    </g>
  </g>
  <g
     inkscape:groupmode="layer"
     id="layer10"
     inkscape:label="Head"
     style="display:inline"
     transform="translate(0,-10)">
    <g
       inkscape:groupmode="layer"
       id="layer12"
       inkscape:label="Neck"
       style="display:inline;">
      <path
         style="fill:#afeeee;stroke:none;stroke-width:0.99999982px;stroke-linecap:butt;stroke-linejoin:miter;stroke-opacity:1"
         d="m 645.05534,573.83827 c 0,0 -36.30174,70.01049 -14.26142,121.87011 0,0 -31.11576,145.20692 -150.39286,169.84024 0,0 -89.45784,0 -92.05081,-58.34207 L 375.51565,686.76324 552.35629,535.59181 Z"
         id="path1189"
         inkscape:connector-curvature="0"
         sodipodi:nodetypes="ccccccc" />
    </g>
    <g
       inkscape:groupmode="layer"
       id="layer2"
       inkscape:label="Face"
       style="display:inline;opacity:1;">
      <path
         style="fill:#afeeee;fill-opacity:1;stroke:none;stroke-width:0.99999982px;stroke-linecap:butt;stroke-linejoin:miter;stroke-opacity:1"
         d="m 390.43461,237.6453 c 0,0 -120.4653,141.51904 -108.54748,290.03371 0,0 14.66816,166.8498 76.09082,173.2671 0,0 188.85201,14.66812 226.43905,-132.9298 0,0 39.42058,49.50491 93.50925,-27.5027 0,0 27.50271,-27.50273 11.00109,-70.5903 0,0 -13.75137,-23.8357 -47.67138,-5.50055 V 246.23454 Z"
         id="path1049"
         inkscape:connector-curvature="0"
         sodipodi:nodetypes="ccccccccc" />
      <path
         sodipodi:nodetypes="ccccccccc"
         inkscape:connector-curvature="0"
         id="path929"
         d="m 369.8226,237.37026 c 0,0 -120.46532,141.51906 -108.5475,290.03373 0,0 14.66815,166.84981 76.09085,173.26711 0,0 188.85199,14.66811 226.43902,-132.9298 0,0 39.42057,49.5049 93.50926,-27.50272 0,0 27.5027,-27.50271 11.00109,-70.5903 0,0 -13.75137,-23.83568 -47.67139,-5.50054 V 245.95951 Z"
         style="fill:none;fill-opacity:1;stroke:#000000;stroke-width:2.99999952;stroke-linecap:butt;stroke-linejoin:miter;stroke-miterlimit:4;stroke-dasharray:none;stroke-opacity:1" />
    </g>
    <g
       inkscape:groupmode="layer"
       id="layer8"
       inkscape:label="Nose"
       style="display:inline">
      <path
         style="fill:none;stroke:#000000;stroke-width:2.99999952;stroke-linecap:round;stroke-linejoin:miter;stroke-miterlimit:4;stroke-dasharray:none;stroke-opacity:1"
         d="m 310.94836,457.73043 -23.83577,43.0876 c 0,0 -7.33395,23.83568 13.75137,33.92002"
         id="path1138"
         inkscape:connector-curvature="0" />
    </g>
    <g
       inkscape:groupmode="layer"
       id="layer7"
       inkscape:label="Hair"
       style="display:inline">
      <path
         style="fill:#663399;stroke:none;stroke-width:0.99999982px;stroke-linecap:butt;stroke-linejoin:miter;stroke-opacity:1"
         d="M 560.12093,171.47866 C 684.79991,176.06245 729.07492,275.98484 728.15816,354.36759 727.2414,432.75031 653.8166,540.2393 653.8166,540.2393 l -18.11658,-69.54955 -43.30653,-11.12545 -34.87399,30.39194 -21.04926,-5.6402 c 0,0 30.25442,-33.91857 21.08686,-68.75535 -9.16758,-34.83678 -54.09083,-51.33841 -54.09083,-51.33841 -7.33407,-9.16757 43.08866,-45.83859 43.08866,-45.83859 -38.5038,-75.17408 -129.26349,-71.50776 -129.26349,-71.50776 -64.17307,-28.41949 -81.59001,45.83856 -81.59001,45.83856 -40.33735,-25.6692 9.16725,-57.7557 9.16725,-57.7557 5.50065,-14.66811 -20.16932,-17.41945 -20.16932,-17.41945 14.66802,-44.00435 95.34199,-49.50347 95.34199,-49.50347 52.18448,-25.50505 125.54927,-7.07673 140.07958,3.44279 z"
         id="path1112"
         inkscape:connector-curvature="0"
         sodipodi:nodetypes="czcccccscccccccc" />
      <path
         sodipodi:nodetypes="czcccccscccccccc"
         inkscape:connector-curvature="0"
         id="path959"
         d="M 560.12093,171.47866 C 684.79991,176.06245 729.07492,275.98484 728.15816,354.36759 727.2414,432.75031 653.8166,540.2393 653.8166,540.2393 l -18.11658,-69.54955 -43.30653,-11.12545 -34.87399,30.39194 -21.04926,-5.6402 c 0,0 30.25442,-33.91857 21.08686,-68.75535 -9.16758,-34.83678 -54.09083,-51.33841 -54.09083,-51.33841 -7.33407,-9.16757 43.08866,-45.83859 43.08866,-45.83859 -38.5038,-75.17408 -129.26349,-71.50776 -129.26349,-71.50776 -64.17307,-28.41949 -81.59001,45.83856 -81.59001,45.83856 -15.59781,-41.13142 9.16725,-57.7557 9.16725,-57.7557 5.50065,-14.66811 -20.16932,-17.41945 -20.16932,-17.41945 14.66802,-44.00435 95.34199,-49.50347 95.34199,-49.50347 52.18448,-25.50505 125.54927,-7.07673 140.07958,3.44279 z"
         style="fill:#663399;stroke:none;stroke-width:0.99999982px;stroke-linecap:butt;stroke-linejoin:miter;stroke-opacity:1" />
    </g>
    <g
       inkscape:groupmode="layer"
       id="layer9"
       inkscape:label="Eyeglasses"
       style="display:inline">
      <path
         style="fill:#000000;fill-opacity:1;stroke:none;stroke-width:2.99999952;stroke-linecap:butt;stroke-linejoin:miter;stroke-miterlimit:4;stroke-dasharray:none;stroke-opacity:0.78431373"
         d="m 254.53822,377.30035 58.34911,4.64823 4.82622,5.5346 7.86245,0.61122 8.7891,-4.46298 81.29641,6.53448 c 20.78301,0.23368 21.08815,18.13072 21.08815,18.13072 l -1.00251,16.06102 181.39808,39.7901 -14.03587,12.52576 -171.17514,-23.03042 -11.23248,36.99536 c -6.70656,17.42155 -64.13864,19.48819 -90.14385,7.31817 -12.36816,-8.41184 -19.51457,-40.40803 -19.51457,-40.40803 0,0 -15.54131,24.43731 -24.81733,36.49049 -7.97312,10.36016 -39.11439,-2.88648 -39.11439,-2.88648 -17.93707,-12.37383 -15.10218,-28.73866 -15.10218,-28.73866 l 5.27173,-71.43635 c 0.85875,-11.63678 17.25707,-13.67723 17.25707,-13.67723 z"
         id="path1166"
         inkscape:connector-curvature="0"
         sodipodi:nodetypes="cccccccccccccccccsc" />
    </g>
    <g
       inkscape:groupmode="layer"
       id="layer5"
       inkscape:label="Ear"
       style="display:inline;opacity:1">
      <path
         style="display:inline;opacity:1;fill:#afeeee;stroke:none;stroke-width:0.99999982px;stroke-linecap:butt;stroke-linejoin:miter;stroke-opacity:1"
         d="m 560.30627,565.1733 c 0,0 39.42057,49.5049 93.50925,-27.5027 0,0 27.50271,-27.50274 11.00109,-70.59031 0,0 -13.75136,-23.83569 -47.67138,-5.50056"
         id="path1049-5"
         inkscape:connector-curvature="0"
         sodipodi:nodetypes="cccc" />
      <path
         style="display:inline;fill:none;stroke:#000000;stroke-width:2.99999952;stroke-linecap:round;stroke-linejoin:miter;stroke-miterlimit:4;stroke-dasharray:none;stroke-opacity:0.78431373"
         d="m 600.6436,513.65264 c 0,0 51.42263,-81.85514 53.17192,-13.75138"
         id="path1142"
         inkscape:connector-curvature="0"
         sodipodi:nodetypes="cc" />
      <path
         style="display:inline;fill:none;stroke:#000000;stroke-width:2.99999952;stroke-linecap:round;stroke-linejoin:miter;stroke-miterlimit:4;stroke-dasharray:none;stroke-opacity:0.78431373"
         d="m 616.8362,503.92074 c 0,0 21.1609,22.2715 -7.36186,43.01535"
         id="path1144"
         inkscape:connector-curvature="0"
         sodipodi:nodetypes="cc" />
    </g>
    <g
       inkscape:groupmode="layer"
       id="layer15"
       inkscape:label="Earphones"
       style="display:inline">
      <circle
         style="opacity:1;fill:#ffffff;fill-opacity:1;stroke:none;stroke-width:2.99999952;stroke-linecap:round;stroke-linejoin:round;stroke-miterlimit:4;stroke-dasharray:none;stroke-dashoffset:0;stroke-opacity:1;paint-order:normal"
         id="path1224"
         cx="-595.73853"
         cy="530.42218"
         r="14.893354"
         transform="scale(-1,1)" />
      <path
         style="fill:#ffffff;fill-opacity:1;stroke:none;stroke-width:0.99999982px;stroke-linecap:butt;stroke-linejoin:miter;stroke-opacity:1"
         d="m 597.43496,543.90561 -28.41949,21.5438 c 0,0 -8.7092,0 -7.33406,-9.16759 l 24.29407,-19.71026 z"
         id="path1226"
         inkscape:connector-curvature="0" />
      <path
         style="fill:none;stroke:#fffffe;stroke-width:3.99999952;stroke-linecap:round;stroke-linejoin:miter;stroke-miterlimit:4;stroke-dasharray:none;stroke-opacity:1"
         d="m 565.80684,560.86561 c 0,0 -85.71682,92.59248 -53.17192,167.30821 32.54487,74.7157 -52.30306,117.14384 -101.30168,137.05519 -48.9986,19.91136 -56.66939,187.16339 -56.66939,187.16339"
         id="path1228"
         inkscape:connector-curvature="0"
         sodipodi:nodetypes="cszc" />
    </g>
  </g>
</svg>
