<?xml version="1.0" encoding="UTF-8" standalone="no"?>
<!-- Created with Inkscape (http://www.inkscape.org/) -->

<svg
   xmlns:dc="http://purl.org/dc/elements/1.1/"
   xmlns:cc="http://creativecommons.org/ns#"
   xmlns:rdf="http://www.w3.org/1999/02/22-rdf-syntax-ns#"
   xmlns:svg="http://www.w3.org/2000/svg"
   xmlns="http://www.w3.org/2000/svg"
   xmlns:xlink="http://www.w3.org/1999/xlink"
   xmlns:sodipodi="http://sodipodi.sourceforge.net/DTD/sodipodi-0.dtd"
   xmlns:inkscape="http://www.inkscape.org/namespaces/inkscape"
   width="1080"
   height="1080"
   viewBox="0 0 1080 1080"
   version="1.1"
   id="svg8"
   inkscape:version="0.92.4 5da689c313, 2019-01-14"
   sodipodi:docname="drawing.svg"
   enable-background="new">
  <defs
     id="defs2">
    <linearGradient
       inkscape:collect="always"
       id="linearGradient1096">
      <stop
         style="stop-color:#ffd700;stop-opacity:1;"
         offset="0"
         id="stop1092" />
      <stop
         style="stop-color:#ff6347;stop-opacity:1"
         offset="1"
         id="stop1094" />
    </linearGradient>
    <linearGradient
       inkscape:collect="always"
       id="linearGradient1074">
      <stop
         style="stop-color:#ffd700;stop-opacity:1"
         offset="0"
         id="stop1070" />
      <stop
         style="stop-color:#dda0dd;stop-opacity:1"
         offset="1"
         id="stop1072" />
    </linearGradient>
    <linearGradient
       inkscape:collect="always"
       xlink:href="#linearGradient1074"
       id="linearGradient1076"
       x1="540"
       y1="0"
       x2="540"
       y2="853.72583"
       gradientUnits="userSpaceOnUse" />
    <linearGradient
       inkscape:collect="always"
       xlink:href="#linearGradient1096"
       id="linearGradient1098"
       x1="540"
       y1="0"
       x2="540"
       y2="978.98474"
       gradientUnits="userSpaceOnUse" />
  </defs>
  <sodipodi:namedview
     id="base"
     pagecolor="#ffffff"
     bordercolor="#666666"
     borderopacity="1.0"
     inkscape:pageopacity="0.0"
     inkscape:pageshadow="2"
     inkscape:zoom="0.49497475"
     inkscape:cx="935.61847"
     inkscape:cy="395.61132"
     inkscape:document-units="px"
     inkscape:current-layer="layer1"
     showgrid="false"
     units="px"
     scale-x="1"
     inkscape:window-width="1914"
     inkscape:window-height="1047"
     inkscape:window-x="2"
     inkscape:window-y="29"
     inkscape:window-maximized="0"
     showguides="false"
     inkscape:snap-page="true" />
  <metadata
     id="metadata5">
    <rdf:RDF>
      <cc:Work
         rdf:about="">
        <dc:format>image/svg+xml</dc:format>
        <dc:type
           rdf:resource="http://purl.org/dc/dcmitype/StillImage" />
        <dc:title />
      </cc:Work>
    </rdf:RDF>
  </metadata>
  <g
     inkscape:groupmode="layer"
     id="layer1"
     inkscape:label="BG"
     style="opacity:0.8">
    <path
       style="opacity:1;fill:url(#linearGradient1098);fill-opacity:1;stroke:none;stroke-width:29.99999809;stroke-linecap:butt;stroke-linejoin:round;stroke-miterlimit:4;stroke-dasharray:none;stroke-dashoffset:0;stroke-opacity:0.5098038;paint-order:normal"
       d="M 540 0 A 540 540 0 0 0 0 540 A 540 540 0 0 0 364.1543 1049.9434 L 847.39258 983.2168 A 540 540 0 0 0 1080 540 A 540 540 0 0 0 540 0 z "
       id="path1084" />
  </g>
  <g
     inkscape:groupmode="layer"
     id="layer10"
     inkscape:label="Person"
     style="display:inline"
     transform="translate(0,-10)"
     sodipodi:insensitive="true">
    <g
       inkscape:groupmode="layer"
       id="layer13"
       inkscape:label="Jacket"
       style="display:inline">
      <path
         style="fill:#000000;fill-opacity:1;stroke:none;stroke-width:0.99999982px;stroke-linecap:butt;stroke-linejoin:miter;stroke-opacity:1"
         d="m 659.35245,589.47576 c 0,0 96.93436,0.48601 169.16766,91.10596 0,0 116.62512,35.47851 144.71887,134.78729 74.00682,84.26092 105.31732,149.392 105.31732,149.392 0,0 -601.10685,94.78239 -953.22548,125.23899 24.18397,-103.34401 -9.05742,-225.92703 23.13524,-320.59765 0,0 44.65328,-80.11329 135.27321,-95.87328 0,0 18.38661,-74.85996 61.72668,-45.96663 z"
         id="path1191"
         inkscape:connector-curvature="0"
         sodipodi:nodetypes="ccccccccc" />
    </g>
    <g
       inkscape:groupmode="layer"
       id="layer12"
       inkscape:label="Neck"
       style="display:inline">
      <path
         style="fill:#afeeee;stroke:none;stroke-width:0.99999982px;stroke-linecap:butt;stroke-linejoin:miter;stroke-opacity:1"
         d="m 706.39485,567.14912 c 0,0 -36.77333,70.91998 -14.44668,123.45329 0,0 -31.51998,147.09326 -152.34657,172.04658 0,0 -90.61997,0 -93.24662,-59.09997 L 433.35365,681.54107 612.49158,528.40581 Z"
         id="path1189"
         inkscape:connector-curvature="0"
         sodipodi:nodetypes="ccccccc" />
    </g>
    <g
       inkscape:groupmode="layer"
       id="layer2"
       inkscape:label="Face"
       style="display:inline;opacity:1">
      <path
         style="fill:#afeeee;fill-opacity:1;stroke:none;stroke-width:0.99999982px;stroke-linecap:butt;stroke-linejoin:miter;stroke-opacity:1"
         d="m 448.46641,226.58877 c 0,0 -122.03022,143.35747 -109.95758,293.80145 0,0 14.85871,169.0173 77.0793,175.51796 0,0 191.30532,14.85867 229.38065,-134.65666 0,0 39.93268,50.14802 94.72399,-27.85997 0,0 27.85999,-27.86001 11.14401,-71.50732 0,0 -13.93002,-24.14534 -48.29067,-5.57201 V 235.28959 Z"
         id="path1049"
         inkscape:connector-curvature="0"
         sodipodi:nodetypes="ccccccccc" />
      <path
         sodipodi:nodetypes="ccccccccc"
         inkscape:connector-curvature="0"
         id="path929"
         d="m 427.58665,226.31016 c 0,0 -122.03026,143.35748 -109.95761,293.80146 0,0 14.8587,169.01731 77.07932,175.51797 0,0 191.3053,14.85867 229.38062,-134.65664 0,0 39.93267,50.148 94.72401,-27.86 0,0 27.85998,-27.85999 11.144,-71.50732 0,0 -13.93001,-24.14533 -48.29067,-5.57199 V 235.01099 Z"
         style="fill:none;fill-opacity:1;stroke:#000000;stroke-width:2.99999976;stroke-linecap:butt;stroke-linejoin:miter;stroke-miterlimit:4;stroke-dasharray:none;stroke-opacity:1" />
    </g>
    <g
       inkscape:groupmode="layer"
       id="layer8"
       inkscape:label="Nose"
       style="display:inline">
      <path
         style="fill:none;stroke:#000000;stroke-width:2.99999976;stroke-linecap:round;stroke-linejoin:miter;stroke-miterlimit:4;stroke-dasharray:none;stroke-opacity:1"
         d="m 367.94758,449.53295 -24.1454,43.64735 c 0,0 -7.42923,24.14531 13.93,34.36066"
         id="path1138"
         inkscape:connector-curvature="0" />
    </g>
    <g
       inkscape:groupmode="layer"
       id="layer7"
       inkscape:label="Hair"
       style="display:inline">
      <path
         style="fill:#663399;stroke:none;stroke-width:0.99999982px;stroke-linecap:butt;stroke-linejoin:miter;stroke-opacity:1"
         d="m 620.35708,159.56258 c 126.29865,4.64334 171.14882,105.86378 170.22015,185.26479 -0.92867,79.40095 -75.30731,188.28631 -75.30731,188.28631 l -18.35193,-70.45305 -43.8691,-11.26997 -35.32703,30.78675 -21.32271,-5.71347 c 0,0 30.64745,-34.3592 21.3608,-69.64853 -9.28668,-35.28934 -54.79351,-52.00534 -54.79351,-52.00534 -7.42935,-9.28666 43.6484,-46.43406 43.6484,-46.43406 -39.00398,-76.15065 -130.94271,-72.4367 -130.94271,-72.4367 -65.00672,-28.78868 -82.64991,46.43404 -82.64991,46.43404 -40.86137,-26.00266 9.28634,-58.50599 9.28634,-58.50599 5.5721,-14.85866 -20.43134,-17.64574 -20.43134,-17.64574 14.85857,-44.576 96.58055,-50.14655 96.58055,-50.14655 52.86239,-25.83639 127.18024,-7.16867 141.89931,3.48751 z"
         id="path1112"
         inkscape:connector-curvature="0"
         sodipodi:nodetypes="czcccccscccccccc" />
      <path
         sodipodi:nodetypes="czcccccscccccccc"
         inkscape:connector-curvature="0"
         id="path959"
         d="m 620.35708,159.56258 c 126.29865,4.64334 171.14882,105.86378 170.22015,185.26479 -0.92867,79.40095 -75.30731,188.28631 -75.30731,188.28631 l -18.35193,-70.45305 -43.8691,-11.26997 -35.32703,30.78675 -21.32271,-5.71347 c 0,0 30.64745,-34.3592 21.3608,-69.64853 -9.28668,-35.28934 -54.79351,-52.00534 -54.79351,-52.00534 -7.42935,-9.28666 43.6484,-46.43406 43.6484,-46.43406 -39.00398,-76.15065 -130.94271,-72.4367 -130.94271,-72.4367 -65.00672,-28.78868 -82.64991,46.43404 -82.64991,46.43404 -15.80044,-41.66575 9.28634,-58.50599 9.28634,-58.50599 5.5721,-14.85866 -20.43134,-17.64574 -20.43134,-17.64574 14.85857,-44.576 96.58055,-50.14655 96.58055,-50.14655 52.86239,-25.83639 127.18024,-7.16867 141.89931,3.48751 z"
         style="fill:#663399;stroke:none;stroke-width:0.99999982px;stroke-linecap:butt;stroke-linejoin:miter;stroke-opacity:1" />
    </g>
    <g
       inkscape:groupmode="layer"
       id="layer9"
       inkscape:label="Eyeglasses"
       style="display:inline">
      <path
         style="fill:#000000;fill-opacity:1;stroke:none;stroke-width:2.99999976;stroke-linecap:butt;stroke-linejoin:miter;stroke-miterlimit:4;stroke-dasharray:none;stroke-opacity:0.78431373"
         d="m 310.80464,368.05804 59.10711,4.70861 4.88891,5.6065 7.96459,0.61916 8.90327,-4.52096 82.35251,6.61937 c 21.053,0.23671 21.3621,18.36625 21.3621,18.36625 l -1.01553,16.26967 183.75457,40.307 -14.21821,12.68847 -173.39882,-23.3296 -11.3784,37.47595 c -6.79368,17.64788 -64.97185,19.74136 -91.31488,7.41325 -12.52883,-8.52113 -19.76808,-40.93296 -19.76808,-40.93296 0,0 -15.7432,24.75477 -25.13972,36.96452 -8.0767,10.49475 -39.62251,-2.92397 -39.62251,-2.92397 -18.1701,-12.53457 -15.29838,-29.112 -15.29838,-29.112 l 5.34021,-72.36435 c 0.86992,-11.78795 17.48126,-13.85491 17.48126,-13.85491 z"
         id="path1166"
         inkscape:connector-curvature="0"
         sodipodi:nodetypes="cccccccccccccccccsc" />
    </g>
    <g
       inkscape:groupmode="layer"
       id="layer5"
       inkscape:label="Ear"
       style="display:inline;opacity:1">
      <path
         style="display:inline;opacity:1;fill:#afeeee;stroke:none;stroke-width:0.99999982px;stroke-linecap:butt;stroke-linejoin:miter;stroke-opacity:1"
         d="m 620.54483,558.37158 c 0,0 39.93266,50.14801 94.724,-27.85998 0,0 27.85999,-27.86002 11.144,-71.50732 0,0 -13.93,-24.14533 -48.29066,-5.57202"
         id="path1049-5"
         inkscape:connector-curvature="0"
         sodipodi:nodetypes="cccc" />
      <path
         style="display:inline;fill:none;stroke:#000000;stroke-width:2.99999976;stroke-linecap:round;stroke-linejoin:miter;stroke-miterlimit:4;stroke-dasharray:none;stroke-opacity:0.78431373"
         d="m 661.40617,506.18164 c 0,0 52.09064,-82.91849 53.86266,-13.93002"
         id="path1142"
         inkscape:connector-curvature="0"
         sodipodi:nodetypes="cc" />
      <path
         style="display:inline;fill:none;stroke:#000000;stroke-width:2.99999976;stroke-linecap:round;stroke-linejoin:miter;stroke-miterlimit:4;stroke-dasharray:none;stroke-opacity:0.78431373"
         d="m 677.80913,496.32331 c 0,0 21.43578,22.56083 -7.4575,43.57415"
         id="path1144"
         inkscape:connector-curvature="0"
         sodipodi:nodetypes="cc" />
    </g>
    <g
       inkscape:groupmode="layer"
       id="layer15"
       inkscape:label="Earphones"
       style="display:inline">
      <circle
         style="opacity:1;fill:#ffffff;fill-opacity:1;stroke:none;stroke-width:2.99999976;stroke-linecap:round;stroke-linejoin:round;stroke-miterlimit:4;stroke-dasharray:none;stroke-dashoffset:0;stroke-opacity:1;paint-order:normal"
         id="path1224"
         cx="-656.43738"
         cy="523.16907"
         r="15.086829"
         transform="scale(-1,1)" />
      <path
         style="fill:#ffffff;fill-opacity:1;stroke:none;stroke-width:0.99999982px;stroke-linecap:butt;stroke-linejoin:miter;stroke-opacity:1"
         d="m 658.15585,536.82761 -28.78869,21.82367 c 0,0 -8.82233,0 -7.42933,-9.28668 l 24.60967,-19.96631 z"
         id="path1226"
         inkscape:connector-curvature="0" />
      <path
         style="fill:none;stroke:#fffffe;stroke-width:3.99999976;stroke-linecap:round;stroke-linejoin:miter;stroke-miterlimit:4;stroke-dasharray:none;stroke-opacity:1"
         d="m 626.11685,554.00793 c 0,0 -86.83033,93.79532 -53.86266,169.48166 32.96766,75.68632 -52.98251,118.66563 -102.61766,138.83564 C 420.00141,882.49525 412.23098,1051.92 412.23098,1051.92"
         id="path1228"
         inkscape:connector-curvature="0"
         sodipodi:nodetypes="cszc" />
    </g>
  </g>
</svg>
